<svg width="1782" height="126" viewBox="0 0 1782 126" fill="none" xmlns="http://www.w3.org/2000/svg">
<path d="M2.68852 116.824C2.50789 116.906 2.36734 117.057 2.29791 117.244C2.22847 117.43 2.23581 117.636 2.31834 117.817C2.40087 117.998 2.55185 118.138 2.73808 118.208C2.92432 118.277 3.13054 118.27 3.31148 118.188C3.31148 118.188 3.31148 118.188 3.31148 118.188C43.0935 100.125 83.3115 83.3161 124.279 68.4238C175.304 49.7696 227.609 34.7672 280.766 23.7199C309.976 17.0537 339.718 14.5612 369.655 11.8671C411.03 8.031 452.936 5.91338 494.448 6.53246C507.786 7.00245 521.115 7.15057 534.419 7.40351C540.78 7.58377 548.649 7.5545 553.345 8.48806C553.248 8.39326 552.932 8.21882 552.863 7.51607C552.846 6.82772 553.245 6.5337 553.22 6.54748C553.342 6.44845 553.182 6.56557 553.1 6.59753C552.994 6.64864 552.842 6.71338 552.652 6.78474C552.447 6.86097 552.338 6.89767 552.153 6.95849C551.353 7.21541 550.714 7.38192 549.823 7.6022C548.334 7.96561 546.687 8.31149 545.037 8.63773C541.712 9.29078 538.654 9.82398 535.23 10.4009C514.288 13.9274 493.671 17.6568 472.976 22.1231C462.682 24.3614 452.358 26.7699 442.188 29.6576C437.114 31.1123 431.967 32.6988 427.054 34.6495C424.506 35.6936 422.084 36.6942 419.617 38.3975C419.004 38.8441 418.382 39.3304 417.801 40.0747C417.489 40.4976 417.201 40.9282 417.041 41.6787C416.872 42.3493 417.101 43.3873 417.509 43.9172C418.371 45.0595 419.21 45.3125 419.978 45.6317C420.731 45.9056 421.426 46.0703 422.181 46.2136C466.4 53.0618 509.169 39.6042 552.262 34.825C658.158 20.8422 765.595 27.509 872.491 23.4313C888.324 22.7743 903.82 22.1747 919.487 21.9587C927.375 21.91 935.203 21.7245 942.715 22.5799C943.541 22.6918 944.599 22.9017 945.015 23.0953C945.067 23.1184 945.089 23.1328 945.077 23.1255C945.07 23.1178 945.012 23.0968 944.875 22.9314C944.749 22.7752 944.572 22.4645 944.564 22.0388C944.557 21.63 944.715 21.3594 944.758 21.2911C945.008 20.9964 944.604 21.3983 944.335 21.5192C942.923 22.2927 941.02 22.9468 939.232 23.5468C935.557 24.755 931.809 25.8058 928.023 26.8684C912.705 31.1325 897.241 35.1391 881.81 39.1585C866.873 43.0503 851.904 46.887 837.006 50.9501C833.241 51.9871 829.514 53.0124 825.768 54.2122C823.868 54.849 822.069 55.3823 819.992 56.4942C819.755 56.6292 819.434 56.8268 819.145 57.0548C819.023 57.1502 818.8 57.34 818.623 57.5393C818.529 57.6456 818.449 57.7425 818.346 57.8952C818.23 58.0699 818.119 58.2749 818.034 58.5183C817.857 58.9537 817.831 59.7852 818.116 60.35C818.358 60.8621 818.65 61.1386 818.934 61.3681C819.34 61.688 819.783 61.8789 820.058 61.9879C821.291 62.4483 822.338 62.5945 823.314 62.7522C831.284 63.7605 838.953 63.7922 846.75 64.0088C921.638 65.2939 996.379 60.1951 1070.83 52.5187C1163.63 45.6131 1254.08 4.41043 1346.06 19.6831C1347.59 20.0955 1348.61 20.3963 1349.9 20.9454C1350.19 21.074 1350.36 21.1544 1350.66 21.3167C1350.94 21.4732 1351.14 21.6155 1351.26 21.7192C1351.32 21.7658 1351.38 21.8257 1351.4 21.8553C1351.42 21.8831 1351.41 21.8698 1351.39 21.814C1351.33 21.7112 1351.38 21.3875 1351.39 21.4162C1351.33 21.672 1349.89 22.5834 1348.82 23.0303C1348.17 23.3219 1347.58 23.5561 1346.96 23.7918C1346.34 24.0239 1345.57 24.2929 1345 24.4849C1339.78 26.2051 1334.26 27.5581 1328.8 28.8951C1317.81 31.5466 1306.79 34.0133 1295.8 36.7557C1273.96 42.4546 1251.48 47.8032 1231.89 60.169C1228.99 62.4015 1225.82 63.5703 1223.7 68.1666C1223.51 68.7964 1223.54 69.8834 1224 70.6143C1224.45 71.3697 1225.08 71.7978 1225.55 72.063C1226.63 72.6504 1227.53 72.8549 1228.49 73.0647C1230.34 73.4354 1232.14 73.5676 1233.93 73.657C1241.09 73.9347 1247.98 73.5095 1255.01 73.0881C1268.96 72.1809 1282.82 70.9115 1296.77 69.6487C1399.64 55.7393 1503.67 56.532 1605.82 75.5648C1622.74 78.4004 1639.51 81.8483 1656.17 85.8318C1698.75 95.837 1739.44 109.979 1781.15 125.241C1781.34 125.202 1781.51 125.087 1781.62 124.922C1781.73 124.756 1781.77 124.554 1781.73 124.359C1781.7 124.164 1781.58 123.993 1781.42 123.882C1781.25 123.772 1781.05 123.732 1780.85 123.77C1780.85 123.77 1780.85 123.77 1780.85 123.77C1740.94 108.495 1699 94.062 1656.64 83.9118C1639.95 79.861 1623.14 76.3469 1606.18 73.4468C1504.1 54.0455 1399.19 52.9659 1296.5 66.6318C1282.55 67.8608 1268.7 69.0969 1254.81 69.9679C1247.84 70.3729 1240.94 70.7716 1234.08 70.4878C1232.38 70.4014 1230.68 70.2617 1229.13 69.9462C1228.35 69.7826 1227.62 69.5711 1227.12 69.2874C1226.9 69.1689 1226.76 69.012 1226.77 69.0117C1226.78 69.0137 1226.76 69.1047 1226.79 68.9573C1227.55 67.086 1230.97 64.6903 1233.69 62.8376C1252.41 51.0405 1274.89 45.606 1296.6 40.0134C1307.56 37.3029 1318.56 34.8631 1329.6 32.2198C1335.1 30.8824 1340.64 29.5427 1346.09 27.7583C1348.88 26.609 1351.59 26.5172 1354.44 23.0762C1354.83 22.4235 1354.94 21.3424 1354.65 20.651C1354.53 20.2913 1354.34 19.975 1354.12 19.7006C1354.01 19.5631 1353.89 19.4351 1353.77 19.3146C1353.69 19.2343 1353.61 19.1573 1353.52 19.0829C1353.17 18.7857 1352.78 18.5283 1352.35 18.2855C1352.1 18.1486 1351.98 18.0864 1351.81 18.0028C1351.65 17.9228 1351.48 17.8443 1351.3 17.7668C1349.68 17.0758 1348.6 16.7666 1346.94 16.3171C1252.5 0.650766 1162.92 42.0031 1070.44 48.6861C996.092 56.283 921.441 61.3241 846.836 60.0223C839.125 59.8127 831.278 59.7436 823.908 58.8037C823.068 58.6787 822.064 58.4864 821.521 58.2719C821.407 58.2318 821.304 58.1601 821.402 58.229C821.463 58.2807 821.605 58.3881 821.75 58.6933C821.927 59.0306 821.908 59.6002 821.807 59.8285C821.706 60.1024 821.618 60.1756 821.598 60.2044C821.568 60.2362 821.588 60.214 821.616 60.1928C821.673 60.1457 821.83 60.0428 821.97 59.9643C823.33 59.2228 825.215 58.5969 826.995 58.0142C830.605 56.8581 834.319 55.8348 838.063 54.8049C852.905 50.759 867.88 46.9215 882.817 43.0298C898.253 39.0088 913.721 35.0004 929.099 30.7175C932.906 29.648 936.67 28.5944 940.489 27.3388C942.39 26.6881 944.249 26.1029 946.307 24.992C946.434 24.9196 946.557 24.8468 946.678 24.7703C946.836 24.6709 946.988 24.568 947.135 24.4578C947.285 24.3455 947.42 24.2365 947.574 24.0922C947.772 23.9041 947.969 23.6881 948.148 23.401C948.297 23.1698 948.574 22.6185 948.557 21.9733C948.542 21.2937 948.275 20.7924 947.997 20.4416C947.856 20.2641 947.706 20.1201 947.557 19.9982C947.415 19.8846 947.346 19.8383 947.241 19.7695C947.044 19.6429 946.849 19.5414 946.649 19.4518C945.342 18.905 944.264 18.7824 943.273 18.6264C935.064 17.7015 927.433 17.9299 919.437 17.9722C903.685 18.1939 888.176 18.8 872.323 19.4643C765.707 23.5873 658.202 16.9824 551.738 31.1752C508.699 36.0574 465.438 49.4275 422.819 42.7866C422.2 42.6711 421.655 42.5358 421.179 42.3627C420.956 42.2823 420.71 42.1695 420.578 42.0897C420.41 41.9936 420.346 41.9082 420.38 41.9518C420.421 41.9787 420.488 42.2714 420.455 42.339C420.435 42.4184 420.452 42.3245 420.562 42.1853C420.676 42.0385 420.806 41.9008 421.017 41.7131C421.212 41.5407 421.396 41.3957 421.643 41.2177C423.562 39.8755 425.926 38.8429 428.341 37.8594C433.049 35.9788 438.126 34.399 443.132 32.9551C453.177 30.0826 463.448 27.6647 473.693 25.4167C494.297 20.9288 514.868 17.1637 535.77 13.5992C539.212 13.0122 542.288 12.4691 545.664 11.7986C547.342 11.4631 549.023 11.1072 550.59 10.7213C551.533 10.4856 552.205 10.3111 553.151 10.0057C553.374 9.93166 553.507 9.88716 553.782 9.78422C554.04 9.68649 554.275 9.58827 554.494 9.48231C554.549 9.45578 554.603 9.42871 554.656 9.40084C554.741 9.35616 554.827 9.30794 554.911 9.25667C555.08 9.1532 555.246 9.03786 555.42 8.87448C555.475 8.82732 556.114 8.22923 556.061 7.37141C555.973 6.46612 555.557 6.17532 555.273 5.93246C547.098 3.67396 541.356 4.62073 534.479 4.24662C521.146 4.02277 507.848 3.90516 494.552 3.46764C452.694 2.94496 410.977 5.16358 369.345 9.13314C339.65 11.884 309.503 14.5017 280.234 21.2802C227.05 32.4966 174.623 47.7145 123.602 66.5686C82.6255 81.6238 42.43 98.5962 2.68852 116.824Z" fill="#F9A8D4"/>
<path d="M0.688518 113.824C0.50789 113.906 0.367341 114.057 0.297905 114.244C0.228468 114.43 0.235812 114.636 0.318342 114.817C0.400871 114.998 0.55185 115.138 0.738084 115.208C0.92432 115.277 1.13054 115.27 1.31148 115.188C1.31148 115.188 1.31148 115.188 1.31148 115.188C41.0935 97.1253 81.3115 80.3161 122.279 65.4238C173.304 46.7696 225.609 31.7672 278.766 20.7199C307.976 14.0537 337.718 11.5612 367.655 8.86711C409.03 5.031 450.936 2.91338 492.448 3.53246C505.786 4.00245 519.115 4.15057 532.419 4.40351C538.78 4.58377 546.649 4.5545 551.345 5.48806C551.248 5.39326 550.932 5.21882 550.863 4.51607C550.846 3.82772 551.245 3.5337 551.22 3.54748C551.342 3.44845 551.182 3.56557 551.1 3.59753C550.994 3.64864 550.842 3.71338 550.652 3.78474C550.447 3.86097 550.338 3.89767 550.153 3.95849C549.353 4.21541 548.714 4.38192 547.823 4.6022C546.334 4.96561 544.687 5.31149 543.037 5.63773C539.712 6.29078 536.654 6.82398 533.23 7.40086C512.288 10.9274 491.671 14.6568 470.976 19.1231C460.682 21.3614 450.358 23.7699 440.188 26.6576C435.114 28.1123 429.967 29.6988 425.054 31.6495C422.506 32.6936 420.084 33.6942 417.617 35.3975C417.004 35.8441 416.382 36.3304 415.801 37.0747C415.489 37.4976 415.201 37.9282 415.041 38.6787C414.872 39.3493 415.101 40.3873 415.509 40.9172C416.371 42.0595 417.21 42.3125 417.978 42.6317C418.731 42.9056 419.426 43.0703 420.181 43.2136C464.4 50.0618 507.169 36.6042 550.262 31.825C656.158 17.8422 763.595 24.509 870.491 20.4313C886.324 19.7743 901.82 19.1747 917.487 18.9587C925.375 18.91 933.203 18.7245 940.715 19.5799C941.541 19.6918 942.599 19.9017 943.015 20.0953C943.067 20.1184 943.089 20.1328 943.077 20.1255C943.07 20.1178 943.012 20.0968 942.875 19.9314C942.749 19.7752 942.572 19.4645 942.564 19.0388C942.557 18.63 942.715 18.3594 942.758 18.2911C943.008 17.9964 942.604 18.3983 942.335 18.5192C940.923 19.2927 939.02 19.9468 937.232 20.5468C933.557 21.755 929.809 22.8058 926.023 23.8684C910.705 28.1325 895.241 32.1391 879.81 36.1585C864.873 40.0503 849.904 43.887 835.006 47.9501C831.241 48.9871 827.514 50.0124 823.768 51.2122C821.868 51.849 820.069 52.3823 817.992 53.4942C817.755 53.6292 817.434 53.8268 817.145 54.0548C817.023 54.1502 816.8 54.34 816.623 54.5393C816.529 54.6456 816.449 54.7425 816.346 54.8952C816.23 55.0699 816.119 55.2749 816.034 55.5183C815.857 55.9537 815.831 56.7852 816.116 57.35C816.358 57.8621 816.65 58.1386 816.934 58.3681C817.34 58.688 817.783 58.8789 818.058 58.9879C819.291 59.4483 820.338 59.5945 821.314 59.7522C829.284 60.7605 836.953 60.7922 844.75 61.0088C919.638 62.2939 994.379 57.1951 1068.83 49.5187C1161.63 42.6131 1252.08 1.41043 1344.06 16.6831C1345.59 17.0955 1346.61 17.3963 1347.9 17.9454C1348.19 18.074 1348.36 18.1544 1348.66 18.3167C1348.94 18.4732 1349.14 18.6155 1349.26 18.7192C1349.32 18.7658 1349.38 18.8257 1349.4 18.8553C1349.42 18.8831 1349.41 18.8698 1349.39 18.814C1349.33 18.7112 1349.38 18.3875 1349.39 18.4162C1349.33 18.672 1347.89 19.5834 1346.82 20.0303C1346.17 20.3219 1345.58 20.5561 1344.96 20.7918C1344.34 21.0239 1343.57 21.2929 1343 21.4849C1337.78 23.2051 1332.26 24.5581 1326.8 25.8951C1315.81 28.5466 1304.79 31.0133 1293.8 33.7557C1271.96 39.4546 1249.48 44.8032 1229.89 57.169C1226.99 59.4015 1223.82 60.5703 1221.7 65.1666C1221.51 65.7964 1221.54 66.8834 1222 67.6143C1222.45 68.3697 1223.08 68.7978 1223.55 69.063C1224.63 69.6504 1225.53 69.8549 1226.49 70.0647C1228.34 70.4354 1230.14 70.5676 1231.93 70.657C1239.09 70.9347 1245.98 70.5095 1253.01 70.0881C1266.96 69.1809 1280.82 67.9115 1294.77 66.6487C1397.64 52.7393 1501.67 53.532 1603.82 72.5648C1620.74 75.4004 1637.51 78.8483 1654.17 82.8318C1696.75 92.837 1737.44 106.979 1779.15 122.241C1779.34 122.202 1779.51 122.087 1779.62 121.922C1779.73 121.756 1779.77 121.554 1779.73 121.359C1779.7 121.164 1779.58 120.993 1779.42 120.882C1779.25 120.772 1779.05 120.732 1778.85 120.77C1778.85 120.77 1778.85 120.77 1778.85 120.77C1738.94 105.495 1697 91.062 1654.64 80.9118C1637.95 76.861 1621.14 73.3469 1604.18 70.4468C1502.1 51.0455 1397.19 49.9659 1294.5 63.6318C1280.55 64.8608 1266.7 66.0969 1252.81 66.9679C1245.84 67.3729 1238.94 67.7716 1232.08 67.4878C1230.38 67.4014 1228.68 67.2617 1227.13 66.9462C1226.35 66.7826 1225.62 66.5711 1225.12 66.2874C1224.9 66.1689 1224.76 66.012 1224.77 66.0117C1224.78 66.0137 1224.76 66.1047 1224.79 65.9573C1225.55 64.086 1228.97 61.6903 1231.69 59.8376C1250.41 48.0405 1272.89 42.606 1294.6 37.0134C1305.56 34.3029 1316.56 31.8631 1327.6 29.2198C1333.1 27.8824 1338.64 26.5427 1344.09 24.7583C1346.88 23.609 1349.59 23.5172 1352.44 20.0762C1352.83 19.4235 1352.94 18.3424 1352.65 17.651C1352.53 17.2913 1352.34 16.975 1352.12 16.7006C1352.01 16.5631 1351.89 16.4351 1351.77 16.3146C1351.69 16.2343 1351.61 16.1573 1351.52 16.0829C1351.17 15.7857 1350.78 15.5283 1350.35 15.2855C1350.1 15.1486 1349.98 15.0864 1349.81 15.0028C1349.65 14.9228 1349.48 14.8443 1349.3 14.7668C1347.68 14.0758 1346.6 13.7666 1344.94 13.3171C1250.5 -2.34923 1160.92 39.0031 1068.44 45.6861C994.092 53.283 919.441 58.3241 844.836 57.0223C837.125 56.8127 829.278 56.7436 821.908 55.8037C821.068 55.6787 820.064 55.4864 819.521 55.2719C819.407 55.2318 819.304 55.1601 819.402 55.229C819.463 55.2807 819.605 55.3881 819.75 55.6933C819.927 56.0306 819.908 56.6002 819.807 56.8285C819.706 57.1024 819.618 57.1756 819.598 57.2044C819.568 57.2362 819.588 57.214 819.616 57.1928C819.673 57.1457 819.83 57.0428 819.97 56.9643C821.33 56.2228 823.215 55.5969 824.995 55.0142C828.605 53.8581 832.319 52.8348 836.063 51.8049C850.905 47.759 865.88 43.9215 880.817 40.0298C896.253 36.0088 911.721 32.0004 927.099 27.7175C930.906 26.648 934.67 25.5944 938.489 24.3388C940.39 23.6881 942.249 23.1029 944.307 21.992C944.434 21.9196 944.557 21.8468 944.678 21.7703C944.836 21.6709 944.988 21.568 945.135 21.4578C945.285 21.3455 945.42 21.2365 945.574 21.0922C945.772 20.9041 945.969 20.6881 946.148 20.401C946.297 20.1698 946.574 19.6185 946.557 18.9733C946.542 18.2937 946.275 17.7924 945.997 17.4416C945.856 17.2641 945.706 17.1201 945.557 16.9982C945.415 16.8846 945.346 16.8383 945.241 16.7695C945.044 16.6429 944.849 16.5414 944.649 16.4518C943.342 15.905 942.264 15.7824 941.273 15.6264C933.064 14.7015 925.433 14.9299 917.437 14.9722C901.685 15.1939 886.176 15.8 870.323 16.4643C763.707 20.5873 656.202 13.9824 549.738 28.1752C506.699 33.0574 463.438 46.4275 420.819 39.7866C420.2 39.6711 419.655 39.5358 419.179 39.3627C418.956 39.2823 418.71 39.1695 418.578 39.0897C418.41 38.9936 418.346 38.9082 418.38 38.9518C418.421 38.9787 418.488 39.2714 418.455 39.339C418.435 39.4184 418.452 39.3245 418.562 39.1853C418.676 39.0385 418.806 38.9008 419.017 38.7131C419.212 38.5407 419.396 38.3957 419.643 38.2177C421.562 36.8755 423.926 35.8429 426.341 34.8594C431.049 32.9788 436.126 31.399 441.132 29.9551C451.177 27.0826 461.448 24.6647 471.693 22.4167C492.297 17.9288 512.868 14.1637 533.77 10.5992C537.212 10.0122 540.288 9.46909 543.664 8.79862C545.342 8.46308 547.023 8.10722 548.59 7.72133C549.533 7.48562 550.205 7.31109 551.151 7.00565C551.374 6.93166 551.507 6.88716 551.782 6.78422C552.04 6.68649 552.275 6.58827 552.494 6.48231C552.549 6.45578 552.603 6.42871 552.656 6.40084C552.741 6.35616 552.827 6.30794 552.911 6.25667C553.08 6.1532 553.246 6.03786 553.42 5.87448C553.475 5.82732 554.114 5.22923 554.061 4.37141C553.973 3.46612 553.557 3.17532 553.273 2.93246C545.098 0.673958 539.356 1.62073 532.479 1.24662C519.146 1.02277 505.848 0.905161 492.552 0.46764C450.694 -0.0550405 408.977 2.16358 367.345 6.13314C337.65 8.88399 307.503 11.5017 278.234 18.2802C225.05 29.4966 172.623 44.7145 121.602 63.5686C80.6255 78.6238 40.43 95.5962 0.688518 113.824Z" fill="#67E8F9"/>
</svg>
