<?xml version="1.0" encoding="UTF-8" standalone="no"?><!DOCTYPE svg PUBLIC "-//W3C//DTD SVG 1.1//EN" "http://www.w3.org/Graphics/SVG/1.1/DTD/svg11.dtd"><svg width="100%" height="100%" viewBox="0 0 252 378" version="1.1" xmlns="http://www.w3.org/2000/svg" xmlns:xlink="http://www.w3.org/1999/xlink" xml:space="preserve" xmlns:serif="http://www.serif.com/" style="fill-rule:evenodd;clip-rule:evenodd;stroke-linejoin:round;stroke-miterlimit:2;"><path d="M30.041,215.376c-8.321,-8.193 -14.545,-18.836 -17.572,-31.143c-7.063,-29.079 0.012,-61.215 21.122,-84.395c24.977,-27.436 38.693,-43.17 63.979,-70.931c16.511,-18.136 39.202,-28.452 62.968,-28.892c23.802,-0.441 46.834,9.046 63.957,26.58l0.018,0.019l0.431,0.442c6.521,6.802 12.046,14.623 16.295,23.215c5.415,10.952 8.723,23.049 9.654,35.393c1.177,15.737 -1.55,31.709 -7.844,46.015c-4.088,9.295 -9.626,17.795 -16.532,25.424c-1.711,1.844 -3.513,3.57 -5.398,5.173c8.322,8.193 14.546,18.836 17.572,31.143c7.063,29.079 -0.012,61.215 -21.121,84.395c-24.978,27.436 -38.694,43.17 -63.979,70.931c-16.512,18.136 -39.203,28.452 -62.968,28.892c-23.802,0.441 -46.835,-9.046 -63.958,-26.58l-0.018,-0.019l-0.43,-0.442c-6.521,-6.802 -12.047,-14.623 -16.295,-23.215c-5.416,-10.952 -8.724,-23.049 -9.655,-35.393c-1.177,-15.737 1.55,-31.709 7.844,-46.015c4.088,-9.295 9.627,-17.795 16.532,-25.424c1.712,-1.844 3.513,-3.57 5.398,-5.173Zm147.697,-46.092c17.242,0 32.309,12.344 36.66,30.036c5.158,21.236 0.104,44.733 -15.315,61.664c-24.976,27.435 -38.691,43.168 -63.979,70.931c-11.796,12.956 -27.966,20.412 -44.944,20.727c-16.987,0.314 -33.389,-6.538 -45.609,-19.051l0,-0.001l-0.288,-0.295c-4.774,-4.98 -8.821,-10.705 -11.932,-16.997c-4.006,-8.102 -6.446,-17.053 -7.133,-26.175c-0.872,-11.655 1.135,-23.487 5.798,-34.085c2.999,-6.819 7.061,-13.056 11.972,-18.482c7.189,-7.747 17.002,-12.109 27.254,-12.109l34.837,0c3.806,0 7.245,2.423 8.717,6.146c1.463,3.722 0.687,8.018 -1.984,10.895c-13.643,14.713 -31.181,33.617 -31.181,33.617c-4.495,4.932 -4.359,12.804 0.288,17.567c4.654,4.763 12.076,4.625 16.57,-0.307l62.203,-68.985c2.247,-2.467 3.335,-5.667 3.287,-8.847l0,-0.075c-0.072,-3.13 -1.248,-6.233 -3.519,-8.589l-0.056,-0.056c0,0 -10.188,-10.44 -19.825,-20.306c-2.767,-2.837 -3.639,-7.172 -2.199,-10.958c1.447,-3.786 4.91,-6.265 8.757,-6.265l31.621,0Zm3.2,-17.079c10.253,0 20.065,-4.362 27.255,-12.109c4.91,-5.426 8.973,-11.663 11.972,-18.482c4.662,-10.598 6.669,-22.43 5.798,-34.085c-0.688,-9.122 -3.127,-18.073 -7.134,-26.175c-3.111,-6.292 -7.157,-12.017 -11.932,-16.997l-0.288,-0.295l0,-0.001c-12.22,-12.513 -28.622,-19.365 -45.608,-19.051c-16.978,0.315 -33.149,7.771 -44.945,20.727c-25.287,27.763 -39.003,43.496 -63.978,70.931c-15.419,16.931 -20.473,40.428 -15.315,61.664c4.35,17.692 19.417,30.036 36.659,30.036l31.622,0c3.846,0 7.309,-2.479 8.757,-6.265c1.439,-3.786 0.568,-8.121 -2.199,-10.958c-9.637,-9.866 -19.826,-20.306 -19.826,-20.306l-0.056,-0.056c-2.271,-2.356 -3.447,-5.459 -3.519,-8.589l0,-0.075c-0.048,-3.18 1.04,-6.38 3.287,-8.847l62.203,-68.985c4.495,-4.932 11.916,-5.07 16.571,-0.307c4.646,4.763 4.782,12.635 0.288,17.567c0,0 -17.539,18.904 -31.182,33.617c-2.671,2.877 -3.447,7.173 -1.983,10.895c1.471,3.723 4.91,6.146 8.717,6.146l34.836,0Z"/></svg>