<?xml version="1.0" encoding="UTF-8" standalone="no"?><!DOCTYPE svg PUBLIC "-//W3C//DTD SVG 1.1//EN" "http://www.w3.org/Graphics/SVG/1.1/DTD/svg11.dtd"><svg width="100%" height="100%" viewBox="0 0 1435 378" version="1.1" xmlns="http://www.w3.org/2000/svg" xmlns:xlink="http://www.w3.org/1999/xlink" xml:space="preserve" xmlns:serif="http://www.serif.com/" style="fill-rule:evenodd;clip-rule:evenodd;stroke-linejoin:round;stroke-miterlimit:2;"><g><path d="M30.041,215.376c-8.321,-8.193 -14.545,-18.836 -17.572,-31.143c-7.063,-29.079 0.012,-61.215 21.122,-84.395c24.977,-27.436 38.693,-43.17 63.979,-70.931c16.511,-18.136 39.202,-28.452 62.968,-28.892c23.802,-0.441 46.834,9.046 63.957,26.58l0.018,0.019l0.431,0.442c6.521,6.802 12.046,14.623 16.295,23.215c5.415,10.952 8.723,23.049 9.654,35.393c1.177,15.737 -1.55,31.709 -7.844,46.015c-4.088,9.295 -9.626,17.795 -16.532,25.424c-1.711,1.844 -3.513,3.57 -5.398,5.173c8.322,8.193 14.546,18.836 17.572,31.143c7.063,29.079 -0.012,61.215 -21.121,84.395c-24.978,27.436 -38.694,43.17 -63.979,70.931c-16.512,18.136 -39.203,28.452 -62.968,28.892c-23.802,0.441 -46.835,-9.046 -63.958,-26.58l-0.018,-0.019l-0.43,-0.442c-6.521,-6.802 -12.047,-14.623 -16.295,-23.215c-5.416,-10.952 -8.724,-23.049 -9.655,-35.393c-1.177,-15.737 1.55,-31.709 7.844,-46.015c4.088,-9.295 9.627,-17.795 16.532,-25.424c1.712,-1.844 3.513,-3.57 5.398,-5.173Zm147.697,-46.092c17.242,0 32.309,12.344 36.66,30.036c5.158,21.236 0.104,44.733 -15.315,61.664c-24.976,27.435 -38.691,43.168 -63.979,70.931c-11.796,12.956 -27.966,20.412 -44.944,20.727c-16.987,0.314 -33.389,-6.538 -45.609,-19.051l0,-0.001l-0.288,-0.295c-4.774,-4.98 -8.821,-10.705 -11.932,-16.997c-4.006,-8.102 -6.446,-17.053 -7.133,-26.175c-0.872,-11.655 1.135,-23.487 5.798,-34.085c2.999,-6.819 7.061,-13.056 11.972,-18.482c7.189,-7.747 17.002,-12.109 27.254,-12.109l34.837,0c3.806,0 7.245,2.423 8.717,6.146c1.463,3.722 0.687,8.018 -1.984,10.895c-13.643,14.713 -31.181,33.617 -31.181,33.617c-4.495,4.932 -4.359,12.804 0.288,17.567c4.654,4.763 12.076,4.625 16.57,-0.307l62.203,-68.985c2.247,-2.467 3.335,-5.667 3.287,-8.847l0,-0.075c-0.072,-3.13 -1.248,-6.233 -3.519,-8.589l-0.056,-0.056c0,0 -10.188,-10.44 -19.825,-20.306c-2.767,-2.837 -3.639,-7.172 -2.199,-10.958c1.447,-3.786 4.91,-6.265 8.757,-6.265l31.621,0Zm3.2,-17.079c10.253,0 20.065,-4.362 27.255,-12.109c4.91,-5.426 8.973,-11.663 11.972,-18.482c4.662,-10.598 6.669,-22.43 5.798,-34.085c-0.688,-9.122 -3.127,-18.073 -7.134,-26.175c-3.111,-6.292 -7.157,-12.017 -11.932,-16.997l-0.288,-0.295l0,-0.001c-12.22,-12.513 -28.622,-19.365 -45.608,-19.051c-16.978,0.315 -33.149,7.771 -44.945,20.727c-25.287,27.763 -39.003,43.496 -63.978,70.931c-15.419,16.931 -20.473,40.428 -15.315,61.664c4.35,17.692 19.417,30.036 36.659,30.036l31.622,0c3.846,0 7.309,-2.479 8.757,-6.265c1.439,-3.786 0.568,-8.121 -2.199,-10.958c-9.637,-9.866 -19.826,-20.306 -19.826,-20.306l-0.056,-0.056c-2.271,-2.356 -3.447,-5.459 -3.519,-8.589l0,-0.075c-0.048,-3.18 1.04,-6.38 3.287,-8.847l62.203,-68.985c4.495,-4.932 11.916,-5.07 16.571,-0.307c4.646,4.763 4.782,12.635 0.288,17.567c0,0 -17.539,18.904 -31.182,33.617c-2.671,2.877 -3.447,7.173 -1.983,10.895c1.471,3.723 4.91,6.146 8.717,6.146l34.836,0Z"/><g><path d="M337.21,288.887c36.455,0 60.725,-20.579 60.725,-53.237c0,-30.156 -20.872,-37.946 -44.438,-45.988c-16.773,-5.78 -27.712,-8.796 -27.712,-22.617c0,-12.817 9.967,-20.104 26.496,-20.104c17.501,0 26.238,8.293 26.238,20.104l0,1.508l29.375,0l0,-3.267c0,-29.638 -23.55,-47.206 -54.64,-47.206c-34.518,0 -58.551,21.834 -58.551,53.991c0,29.653 20.144,37.444 43.723,45.234c16.772,5.529 27.954,8.795 27.954,23.12c0,12.816 -10.453,19.601 -27.225,19.601c-13.856,0 -29.89,-4.523 -29.89,-20.355l0,-1.508l-30.343,0c-0.243,1.256 -0.243,2.513 -0.243,3.016c0,32.399 26.946,47.708 58.531,47.708Z" style="fill-rule:nonzero;"/><path d="M406.953,229.865c0,36.687 26.697,59.021 60.475,59.021c40.103,0 70.684,-31.876 70.684,-71.336c0,-36.938 -26.698,-59.273 -60.233,-59.273c-40.346,0 -70.926,32.129 -70.926,71.588Zm61.69,31.166c-19.686,0 -32.081,-13.321 -32.081,-33.176c0,-22.872 16.283,-41.722 39.616,-41.722c19.687,0 32.081,13.321 32.081,33.428c0,22.62 -16.04,41.47 -39.616,41.47Z" style="fill-rule:nonzero;"/><path d="M603.949,288.886c31.34,0 56.849,-19.574 65.838,-49.721l-29.639,0c-6.317,13.823 -18.95,21.866 -34.255,21.866c-20.408,0 -33.283,-13.572 -33.283,-32.422c0,-22.62 15.548,-42.476 38.627,-42.476c16.52,0 28.182,8.294 32.312,21.866l29.396,0c-3.401,-31.151 -28.425,-49.722 -59.764,-49.722c-39.357,0 -70.18,32.129 -70.18,72.845c0,34.175 25.241,57.764 60.948,57.764Z" style="fill-rule:nonzero;"/><path d="M717.891,145.437c12.655,0 21.15,-10.548 21.15,-21.843c0,-11.045 -7.767,-18.075 -17.984,-18.075c-11.662,0 -21.13,9.54 -21.13,21.84c0,11.295 7.768,18.078 17.964,18.078Zm-42.972,140.183l28.891,0l23.338,-124.077l-28.931,0l-23.298,124.077Z" style="fill-rule:nonzero;"/><path d="M730.31,229.865c0,36.687 26.697,59.021 60.475,59.021c40.103,0 70.683,-31.876 70.683,-71.336c0,-36.938 -26.697,-59.273 -60.232,-59.273c-40.346,0 -70.926,32.129 -70.926,71.588Zm61.69,31.166c-19.686,0 -32.081,-13.321 -32.081,-33.176c0,-22.872 16.283,-41.722 39.616,-41.722c19.687,0 32.081,13.321 32.081,33.428c0,22.62 -16.04,41.47 -39.616,41.47Z" style="fill-rule:nonzero;"/><path d="M907.632,188.645l61.704,0l5.101,-27.102l-61.699,0l8.266,-43.965l-29.158,0l-21.844,115.806c-0.972,5.278 -1.215,10.053 -1.215,13.572c0,27.375 19.176,41.93 46.382,41.93c26.986,0 45.916,-14.304 51.983,-45.7l1.456,-8.546l-29.126,0l-0.973,5.53c-2.917,15.08 -10.697,20.861 -21.881,20.861c-10.454,0 -18.715,-5.278 -18.715,-18.096c0,-1.76 0.243,-4.273 0.728,-6.787l8.991,-47.503Z" style="fill-rule:nonzero;"/><path d="M1067.75,285.62l26.709,0l10.436,-54.517c0.971,-5.276 1.457,-10.049 1.457,-15.074c0,-35.919 -25.969,-57.752 -59.504,-57.752c-41.56,0 -71.898,33.634 -71.898,73.329c0,37.957 27.426,57.28 54.399,57.28c17.256,0 32.811,-8.03 42.29,-23.589l-3.889,20.323Zm-30.38,-24.589c-19.93,0 -32.324,-13.572 -32.324,-33.428c0,-23.122 16.526,-41.47 40.101,-41.47c19.444,0 31.839,12.567 31.839,32.422c0,22.118 -15.312,42.476 -39.616,42.476Z" style="fill-rule:nonzero;"/><path d="M1220.78,197.192c0,-24.361 -19.903,-38.915 -48.571,-38.915c-28.437,0 -48.58,14.052 -48.58,42.434c0,24.63 21.357,30.411 39.098,35.186c11.184,3.016 21.882,5.53 21.882,15.08c0,7.289 -6.565,12.064 -20.18,12.064c-15.56,0 -23.812,-5.781 -23.812,-14.075l-29.131,0c0,25.617 20.637,39.92 51.727,39.92c29.898,0 50.526,-13.048 50.526,-41.428c0,-25.133 -22.813,-31.667 -38.855,-35.94c-12.643,-3.267 -22.125,-6.032 -22.125,-14.828c0,-7.289 6.564,-12.316 18.964,-12.316c13.372,0 19.689,5.53 20.174,12.818l28.883,0Z" style="fill-rule:nonzero;"/><path d="M1359.74,161.543l-39.114,0l-55.633,52.247l19.921,-106.513l-28.91,0l-33.497,178.346l28.881,0l11.175,-58.772l40.329,58.772l34.74,0l-45.673,-63.293l67.781,-60.787Z" style="fill-rule:nonzero;"/></g><g><path d="M1387.46,117.769l-10.054,0l0,31.631l-7.794,0l0,-31.631l-10.055,0l0,-7.342l27.903,0l0,7.342Z" style="fill-rule:nonzero;"/><path d="M1434.17,110.427l0,38.973l-7.794,0l0,-25.7l-11.015,25.7l-5.366,0l-11.014,-25.7l0,25.7l-7.795,0l0,-38.973l10.111,0l11.466,26.942l11.41,-26.942l9.997,0Z" style="fill-rule:nonzero;"/></g></g></svg>