<?xml version="1.0" encoding="UTF-8" standalone="no"?><!DOCTYPE svg PUBLIC "-//W3C//DTD SVG 1.1//EN" "http://www.w3.org/Graphics/SVG/1.1/DTD/svg11.dtd"><svg width="100%" height="100%" viewBox="0 0 1396 328" version="1.1" xmlns="http://www.w3.org/2000/svg" xmlns:xlink="http://www.w3.org/1999/xlink" xml:space="preserve" xmlns:serif="http://www.serif.com/" style="fill-rule:evenodd;clip-rule:evenodd;stroke-linecap:round;stroke-linejoin:round;stroke-miterlimit:3;"><path d="M152.739,144.284c17.242,0 32.309,12.344 36.66,30.036c5.158,21.236 0.104,44.733 -15.315,61.664c-24.976,27.435 -38.691,43.168 -63.978,70.931c-11.796,12.956 -27.967,20.412 -44.945,20.727c-16.987,0.314 -33.389,-6.539 -45.609,-19.052l0,0l-0.288,-0.295c-4.774,-4.98 -8.821,-10.705 -11.932,-16.997c-4.006,-8.102 -6.445,-17.053 -7.133,-26.175c-0.872,-11.655 1.135,-23.487 5.798,-34.085c2.999,-6.819 7.061,-13.056 11.972,-18.482c7.189,-7.747 17.002,-12.109 27.254,-12.109l34.837,0c3.806,0 7.245,2.423 8.717,6.146c1.463,3.722 0.688,8.018 -1.984,10.895c-13.643,14.713 -31.181,33.617 -31.181,33.617c-4.495,4.932 -4.359,12.804 0.288,17.567c4.654,4.763 12.076,4.625 16.57,-0.307l62.203,-68.985c2.247,-2.467 3.335,-5.667 3.287,-8.847l0,-0.075c-0.072,-3.13 -1.247,-6.233 -3.519,-8.589l-0.056,-0.056c0,0 -10.188,-10.44 -19.825,-20.307c-2.767,-2.836 -3.639,-7.171 -2.199,-10.957c1.447,-3.786 4.91,-6.265 8.757,-6.265l31.621,0Zm-72.694,39.084l-31.621,0c-17.243,0 -32.31,-12.344 -36.66,-30.036c-5.158,-21.236 -0.104,-44.733 15.315,-61.664c24.975,-27.435 38.691,-43.168 63.978,-70.931c11.796,-12.956 27.967,-20.412 44.945,-20.727c16.986,-0.314 33.389,6.538 45.608,19.051l0,0.001l0.288,0.295c4.775,4.98 8.821,10.705 11.932,16.997c4.007,8.101 6.446,17.053 7.134,26.175c0.872,11.655 -1.136,23.487 -5.798,34.085c-2.999,6.819 -7.062,13.056 -11.972,18.482c-7.19,7.747 -17.002,12.109 -27.255,12.109l-34.836,0c-3.807,0 -7.246,-2.423 -8.717,-6.146c-1.464,-3.722 -0.688,-8.018 1.983,-10.895c13.644,-14.713 31.182,-33.617 31.182,-33.617c4.494,-4.932 4.358,-12.804 -0.288,-17.567c-4.655,-4.763 -12.076,-4.625 -16.571,0.307l-62.203,68.985c-2.247,2.467 -3.334,5.667 -3.286,8.847l0,0.075c0.072,3.13 1.247,6.233 3.518,8.589l0.056,0.056c0,0 10.189,10.44 19.826,20.306c2.767,2.837 3.638,7.172 2.199,10.958c-1.448,3.786 -4.91,6.265 -8.757,6.265Z" style="fill:#fff;"/><text x="233.806px" y="259.636px" style="font-family:'FONTSPRINGDEMO-AllRoundGothicDemiItalic', 'FONTSPRING DEMO - All Round Gothic Demi', sans-serif;font-weight:600;font-style:italic;font-size:251.232px;fill:#fff;stroke:#000;stroke-width:1.75px;">S<tspan x="360.865px 496.913px 630.532px 684.222px 820.27px 929.594px 1070.02px 1178.12px " y="259.636px 259.636px 259.636px 259.636px 259.636px 259.636px 259.636px 259.636px ">ociotask</tspan></text><text x="1318.09px" y="123.4px" style="font-family:'Sloth-SemiBold', 'Sloth';font-weight:600;font-size:56.484px;fill:#fff;stroke:#000;stroke-width:1.75px;">T<tspan x="1347.23px " y="123.4px ">M</tspan></text></svg>