<svg width="193" height="20" viewBox="0 0 193 20" fill="none" xmlns="http://www.w3.org/2000/svg">
<path d="M1.07025 7.84746C0.876098 7.86002 0.691177 7.94346 0.556283 8.08571C0.421388 8.22789 0.347551 8.41622 0.351037 8.61049C0.354524 8.80475 0.435071 8.99031 0.574981 9.12756C0.714893 9.26488 0.902689 9.34163 1.09717 9.34722C4.69065 9.44942 8.28054 9.53501 11.8746 9.60445C26.0345 9.88584 40.2255 9.87654 54.3449 9.7618C54.5485 9.76054 54.7498 9.75904 54.9487 9.75733C57.2144 9.73803 59.4855 9.69216 61.7457 9.62159C62.8764 9.58673 64.0072 9.54477 65.1297 9.50467C65.6919 9.48507 66.2413 9.46558 66.7824 9.45589C67.0373 9.45151 67.3157 9.44974 67.5141 9.45748C67.5978 9.45737 67.7359 9.48115 67.582 9.45314C67.5447 9.44228 67.4417 9.42998 67.2117 9.31708C67.0811 9.24764 66.789 9.09533 66.514 8.70343C66.3495 8.47462 66.192 8.0863 66.1751 7.72265C66.1634 7.54074 66.1794 7.36426 66.2104 7.21351C66.2344 7.09566 66.2674 6.99032 66.3033 6.89825C66.4492 6.53292 66.631 6.35513 66.6821 6.29717C66.7578 6.21758 66.8143 6.17081 66.8564 6.13745C66.922 6.08639 66.9491 6.07106 66.9639 6.0617C64.5921 7.12449 60.9991 8.04921 57.6176 9.85241C57.338 10.0191 57.0315 10.1966 56.6861 10.425C56.5114 10.5417 56.333 10.6649 56.1172 10.8424C55.9071 11.0275 55.6619 11.206 55.3407 11.7205C55.198 11.9659 54.9932 12.3783 54.9941 12.9722C54.9863 13.5554 55.2764 14.1395 55.5233 14.4243C56.0425 15.0162 56.3931 15.1191 56.6722 15.2581C57.2327 15.4926 57.6207 15.5695 58.0195 15.6539C59.5541 15.942 60.8939 16.0055 62.2593 16.0764C64.98 16.1961 67.6314 16.1911 70.3262 16.1627C94.3844 15.3787 117.921 11.8162 141.596 9.90697C154.835 8.87002 168.012 7.78808 181.212 8.48115C184.788 8.65101 188.341 8.91475 191.919 9.24566C192.116 9.26382 192.313 9.20527 192.467 9.08071C192.62 8.95617 192.719 8.7762 192.74 8.58C192.761 8.38379 192.704 8.18697 192.58 8.03243C192.456 7.87786 192.277 7.77862 192.081 7.75435C188.496 7.311 184.928 6.93784 181.325 6.66243C168.013 5.57687 154.654 6.33795 141.404 7.09305C117.592 8.5091 93.844 11.729 70.2958 12.3125C67.6419 12.321 65.0264 12.3061 62.4502 12.1766C61.1831 12.1079 59.8603 12.0152 58.7977 11.8048C58.5466 11.7552 58.2961 11.6804 58.2422 11.653C58.224 11.6603 58.266 11.6009 58.5751 11.9407C58.7196 12.1024 58.9369 12.5239 58.9299 12.9431C58.929 13.3694 58.7899 13.6175 58.7275 13.7281C58.579 13.9571 58.5822 13.9064 58.6245 13.881C58.6705 13.8433 58.7574 13.7804 58.8605 13.7129C59.0693 13.5757 59.3358 13.4201 59.626 13.2497C62.2083 11.8698 65.2723 11.1765 69.0367 9.46229C69.1208 9.41052 69.2029 9.35825 69.3199 9.2669C69.3942 9.20818 69.4777 9.13721 69.5753 9.03455C69.6442 8.95863 69.8578 8.74072 70.0135 8.34711C70.0524 8.24756 70.0875 8.13488 70.113 8.00985C70.1459 7.84988 70.1626 7.66421 70.1504 7.47348C70.1325 7.09232 69.9684 6.6864 69.7937 6.44305C69.5031 6.02744 69.1774 5.85049 69.0139 5.7648C68.7342 5.62548 68.5414 5.58765 68.448 5.56484C68.017 5.47888 67.874 5.48923 67.6762 5.47616C67.3185 5.4622 67.0091 5.46604 66.7192 5.46978C66.1177 5.47931 65.5626 5.49817 64.9927 5.51687C63.8602 5.55513 62.7431 5.59476 61.6242 5.62781C59.3901 5.69466 57.1514 5.73841 54.9142 5.75748C54.7179 5.75917 54.5192 5.76075 54.3181 5.76219C40.1453 5.89199 25.9786 6.43442 11.8319 7.20483C8.24234 7.40202 4.65775 7.61638 1.07025 7.84746Z" fill="#EC4899"/>
</svg>
