<svg width="134" height="200" viewBox="0 0 134 200" fill="none" xmlns="http://www.w3.org/2000/svg">
<path d="M7.5 143L26.5 115.5C23.6667 112 17.3 103.5 14.5 97.5C11 90 14 71 16 67C18 63 47.5 29.5 54.5 22C61.5 14.5 76.5 8.00001 86.5 7.50001C96.5 7.00001 119.5 14.5 125.5 40C130.3 60.4 115.833 79.1667 108 86L120 105.5V134L93.5 160.5L67 187.5L38 193.5L13 172.5L7.5 143Z" fill="white"/>
<path fill-rule="evenodd" clip-rule="evenodd" d="M16.0277 114.48C11.5883 110.163 8.26764 104.555 6.65266 98.0694C2.88439 82.7465 6.65906 65.8128 17.9217 53.5983C31.2475 39.1411 38.5653 30.8502 52.056 16.2218C60.865 6.66521 72.9712 1.22929 85.6509 0.997438C98.3498 0.765057 110.638 5.76414 119.773 15.0035L119.783 15.0135L120.013 15.2464C123.492 18.8307 126.44 22.9519 128.707 27.4794C131.596 33.2504 133.361 39.6248 133.857 46.1294C134.485 54.4219 133.03 62.8382 129.672 70.3766C127.491 75.2745 124.537 79.7535 120.852 83.7735C119.939 84.7452 118.978 85.6547 117.972 86.4994C122.412 90.8166 125.733 96.4249 127.347 102.91C131.116 118.233 127.341 135.167 116.079 147.381C102.752 161.838 95.4347 170.129 81.9445 184.758C73.135 194.314 61.0288 199.75 48.3496 199.982C35.6507 200.214 23.3621 195.215 14.2266 185.976L14.217 185.966L13.9875 185.733C10.5084 182.149 7.56018 178.027 5.29378 173.5C2.40422 167.729 0.639322 161.355 0.142612 154.85C-0.485345 146.558 0.969573 138.141 4.32757 130.603C6.50861 125.705 9.46379 121.226 13.1478 117.206C14.0612 116.234 15.022 115.325 16.0277 114.48ZM94.8275 90.1922C104.027 90.1922 112.065 96.6968 114.386 106.019C117.138 117.21 114.442 129.591 106.216 138.513C92.8903 152.969 85.573 161.26 72.0813 175.889C65.7878 182.716 57.1608 186.645 48.1026 186.811C39.0397 186.977 30.2888 183.366 23.7691 176.772V176.772L23.6155 176.616C21.0685 173.992 18.9093 170.975 17.2495 167.66C15.1122 163.391 13.8104 158.674 13.4439 153.867C12.9786 147.726 14.0494 141.491 16.5372 135.906C18.1373 132.313 20.3045 129.027 22.9246 126.168C26.7601 122.085 31.9955 119.787 37.4652 119.787H56.0516C58.0822 119.787 59.9169 121.064 60.7023 123.025C61.4828 124.987 61.0688 127.25 59.6438 128.766C52.3649 136.519 43.008 146.481 43.008 146.481C40.6098 149.079 40.6824 153.228 43.1617 155.737C45.6447 158.247 49.6045 158.174 52.0021 155.576L85.1889 119.225C86.3877 117.925 86.9682 116.238 86.9426 114.563V114.523C86.9041 112.874 86.2767 111.239 85.0651 109.997L85.0352 109.968C85.0352 109.968 79.5997 104.467 74.4581 99.2677C72.9819 97.7728 72.5166 95.4885 73.2849 93.4935C74.0569 91.4985 75.9045 90.1922 77.957 90.1922H94.8275ZM96.5348 81.1926C102.005 81.1926 107.24 78.8941 111.076 74.8118C113.696 71.9527 115.863 68.6661 117.463 65.0729C119.951 59.4884 121.021 53.2536 120.557 47.1121C120.19 42.3054 118.888 37.5887 116.75 33.3195C115.091 30.004 112.932 26.9872 110.385 24.3631L110.231 24.2076C103.711 17.614 94.9604 14.0029 85.8979 14.1683C76.8398 14.3343 68.2122 18.2632 61.9187 25.0902C48.4275 39.7197 41.1097 48.0101 27.785 62.4667C19.5586 71.3883 16.8622 83.7698 19.6141 94.96C21.9349 104.283 29.9735 110.787 39.1725 110.787H56.0436C58.0955 110.787 59.9431 109.481 60.7156 107.486C61.4834 105.491 61.0187 103.207 59.5424 101.712C54.4008 96.5129 48.9648 91.0116 48.9648 91.0116L48.9349 90.9821C47.7233 89.7406 47.0958 88.1055 47.0574 86.4562V86.4167C47.0318 84.741 47.6123 83.0548 48.8111 81.7548L81.9979 45.4038C84.3961 42.8049 88.3553 42.7322 90.8389 45.242C93.3176 47.7519 93.3902 51.8999 90.9925 54.4988C90.9925 54.4988 81.6351 64.4601 74.3562 72.213C72.9312 73.729 72.5172 75.9927 73.2982 77.954C74.083 79.9158 75.9178 81.1926 77.949 81.1926H96.5348Z" fill="black"/>
</svg>
