<svg width="28" height="28" viewBox="0 0 28 28" fill="none" xmlns="http://www.w3.org/2000/svg">
<path d="M14 28C21.732 28 28 21.732 28 14C28 6.26801 21.732 0 14 0C6.26801 0 0 6.26801 0 14C0 21.732 6.26801 28 14 28Z" fill="#E84142"/>
<path fill-rule="evenodd" clip-rule="evenodd" d="M10.0782 19.9063H7.42874C6.87224 19.9063 6.5975 19.9063 6.4295 19.7986C6.34098 19.7409 6.2673 19.6631 6.2144 19.5716C6.1615 19.4801 6.13088 19.3774 6.125 19.2719C6.1145 19.0741 6.25187 18.8318 6.5275 18.3488L13.0655 6.80488C13.3437 6.31488 13.4855 6.06988 13.6622 5.97888C13.7569 5.93078 13.8615 5.9057 13.9676 5.9057C14.0738 5.9057 14.1784 5.93078 14.273 5.97888C14.4506 6.06988 14.5915 6.31488 14.8697 6.80488L16.2137 9.15513L16.2207 9.16738C16.5209 9.69238 16.6731 9.96013 16.7396 10.2401C16.814 10.5466 16.814 10.8664 16.7396 11.1729C16.6731 11.4555 16.5217 11.7241 16.2172 12.2579L12.782 18.3391L12.7732 18.354C12.4705 18.8843 12.3182 19.1529 12.1047 19.3559C11.8746 19.5755 11.5958 19.7374 11.291 19.8284C11.0119 19.9063 10.7012 19.9063 10.0782 19.9063ZM16.7659 19.9063H20.5599C21.1199 19.9063 21.4016 19.9063 21.5696 19.796C21.6587 19.7378 21.7328 19.6593 21.7857 19.567C21.8386 19.4747 21.8689 19.3712 21.8741 19.2649C21.8837 19.0733 21.7499 18.8414 21.4865 18.3855L21.4585 18.3383L19.558 15.0815L19.5361 15.0448C19.2692 14.5924 19.1336 14.364 18.9612 14.2756C18.8674 14.2276 18.7635 14.2025 18.6581 14.2025C18.5526 14.2025 18.4487 14.2276 18.3549 14.2756C18.1799 14.3666 18.0399 14.6055 17.7616 15.085L15.8672 18.3418L15.8611 18.3531C15.5837 18.8326 15.4446 19.0715 15.4551 19.2684C15.4611 19.3744 15.4918 19.4775 15.5447 19.5695C15.5975 19.6616 15.6711 19.74 15.7596 19.7986C15.9241 19.9063 16.2059 19.9063 16.7659 19.9063Z" fill="white"/>
</svg>
