<svg width="28" height="28" viewBox="0 0 28 28" fill="none" xmlns="http://www.w3.org/2000/svg">
<path d="M14 28C21.732 28 28 21.732 28 14C28 6.26801 21.732 0 14 0C6.26801 0 0 6.26801 0 14C0 21.732 6.26801 28 14 28Z" fill="#26A17B"/>
<path fill-rule="evenodd" clip-rule="evenodd" d="M15.6817 15.2101V15.2084C15.5855 15.2154 15.0894 15.2451 13.9825 15.2451C13.0987 15.2451 12.4766 15.2189 12.2579 15.2084V15.211C8.85587 15.0614 6.31662 14.469 6.31662 13.7603C6.31662 13.0515 8.85587 12.46 12.2579 12.3078V14.6213C12.4801 14.637 13.1171 14.6746 13.9974 14.6746C15.0535 14.6746 15.5829 14.6309 15.6817 14.6221V12.3095C19.0767 12.4609 21.6099 13.0533 21.6099 13.7603C21.6099 14.469 19.0767 15.0596 15.6817 15.2101ZM15.6817 12.0689V9.99863H20.419V6.84163H7.52062V9.99863H12.2579V12.068C8.40787 12.2448 5.5125 13.0078 5.5125 13.9213C5.5125 14.8348 8.40787 15.5969 12.2579 15.7745V22.4088H15.6817V15.7728C19.5256 15.596 22.414 14.8339 22.414 13.9213C22.414 13.0086 19.5256 12.2465 15.6817 12.0689Z" fill="white"/>
</svg>
