<svg width="28" height="28" viewBox="0 0 28 28" fill="none" xmlns="http://www.w3.org/2000/svg">
<path d="M14 28C21.732 28 28 21.732 28 14C28 6.26801 21.732 0 14 0C6.26801 0 0 6.26801 0 14C0 21.732 6.26801 28 14 28Z" fill="#3E73C4"/>
<path d="M17.5192 15.8585C17.5192 14 16.3992 13.363 14.1592 13.097C12.5597 12.8844 12.2404 12.46 12.2404 11.7163C12.2404 10.9725 12.7741 10.4948 13.8399 10.4948C14.7997 10.4948 15.3335 10.8133 15.5995 11.6104C15.6274 11.6873 15.6782 11.7539 15.7449 11.8013C15.8117 11.8487 15.8913 11.8745 15.9731 11.8755H16.8262C16.8755 11.8768 16.9246 11.8681 16.9704 11.8499C17.0162 11.8317 17.0578 11.8044 17.0927 11.7696C17.1277 11.7349 17.1552 11.6933 17.1736 11.6476C17.192 11.6019 17.201 11.5529 17.1999 11.5036V11.4511C17.0956 10.8744 16.8038 10.3483 16.3698 9.95446C15.9358 9.56063 15.3838 9.32116 14.7997 9.27325V7.99926C14.7997 7.78663 14.6396 7.62738 14.3736 7.57401H13.573C13.3604 7.57401 13.2002 7.73326 13.1469 7.99926V9.22076C11.5465 9.43251 10.5341 10.4948 10.5341 11.823C10.5341 13.5748 11.5999 14.2651 13.8399 14.5311C15.3335 14.7963 15.813 15.1156 15.813 15.9653C15.813 16.814 15.0666 17.3985 14.0534 17.3985C12.6665 17.3985 12.187 16.8149 12.0269 16.0178C11.9744 15.806 11.8134 15.6993 11.6532 15.6993H10.7467C10.6975 15.6981 10.6486 15.7069 10.6029 15.7251C10.5572 15.7434 10.5157 15.7707 10.4808 15.8055C10.446 15.8402 10.4186 15.8817 10.4002 15.9273C10.3818 15.973 10.3729 16.0219 10.374 16.0711V16.1236C10.5866 17.4519 11.4406 18.4074 13.2002 18.6734V19.9483C13.2002 20.16 13.3604 20.3201 13.6264 20.3726H14.427C14.6396 20.3726 14.7997 20.2134 14.8531 19.9483V18.6725C16.4535 18.4074 17.5192 17.2918 17.5192 15.8576V15.8585Z" fill="white"/>
<path d="M11.2805 21.4349C7.12075 19.9474 4.9875 15.3274 6.5345 11.2385C7.33425 9.00725 9.09387 7.30887 11.2805 6.51175C11.494 6.40587 11.5999 6.24663 11.5999 5.98063V5.23688C11.5999 5.02513 11.494 4.86588 11.2805 4.8125C11.2271 4.8125 11.1204 4.8125 11.067 4.865C9.86687 5.23978 8.75274 5.84826 7.78874 6.6554C6.82475 7.46254 6.02993 8.45239 5.45006 9.56797C4.87019 10.6836 4.51672 11.9028 4.41001 13.1556C4.30329 14.4083 4.44543 15.6698 4.82825 16.8674C5.78725 19.8424 8.08062 22.1261 11.067 23.0816C11.2805 23.1875 11.494 23.0816 11.5465 22.869C11.5999 22.8165 11.5999 22.7622 11.5999 22.6564V21.9126C11.5999 21.7534 11.4406 21.5416 11.2805 21.4349ZM16.933 4.86587C16.7195 4.75912 16.506 4.86587 16.4535 5.07762C16.4001 5.131 16.4001 5.18438 16.4001 5.29025V6.034C16.4001 6.24662 16.5594 6.45837 16.7195 6.56512C20.8792 8.05262 23.0125 12.6726 21.4655 16.7615C20.6657 18.9928 18.9061 20.6911 16.7195 21.4883C16.506 21.5941 16.4001 21.7534 16.4001 22.0194V22.7631C16.4001 22.9749 16.506 23.1341 16.7195 23.1875C16.7729 23.1875 16.8796 23.1875 16.933 23.135C18.1331 22.7602 19.2473 22.1517 20.2113 21.3446C21.1752 20.5375 21.9701 19.5476 22.5499 18.432C23.1298 17.3165 23.4833 16.0972 23.59 14.8444C23.6967 13.5917 23.5546 12.3302 23.1717 11.1326C22.2127 8.10512 19.866 5.82137 16.933 4.86587Z" fill="white"/>
</svg>
